HIERARCHY
ROOT joint_Root
{
	OFFSET 0.0 0.0 0.0
	CHANNELS 6 Xposition Yposition Zposition Zrotation Xrotation Yrotation 
	JOINT Hips
	{
		OFFSET -17.1583 93.1646 452.98
		CHANNELS 6 Xposition Yposition Zposition Zrotation Xrotation Yrotation 
		JOINT Spine
		{
			OFFSET 15.7357 0.0 0.0
			CHANNELS 6 Xposition Yposition Zposition Zrotation Xrotation Yrotation 
			JOINT Chest
			{
				OFFSET 8.98455 -0.406207 0.0
				CHANNELS 6 Xposition Yposition Zposition Zrotation Xrotation Yrotation 
				JOINT Neck
				{
					OFFSET 16.3773 0.0 0.0
					CHANNELS 6 Xposition Yposition Zposition Zrotation Xrotation Yrotation 
					JOINT Head
					{
						OFFSET 6.45672 0.0 0.0
						CHANNELS 6 Xposition Yposition Zposition Zrotation Xrotation Yrotation 
						End Site
						{
							OFFSET 0.0 0.0 0.0
						}
					}
				}
				JOINT Shoulder_L
				{
					OFFSET 12.9942 -0.242716 4.98039
					CHANNELS 6 Xposition Yposition Zposition Zrotation Xrotation Yrotation 
					JOINT UpperArm_L
					{
						OFFSET 5.34809 0.0 0.0
						CHANNELS 6 Xposition Yposition Zposition Zrotation Xrotation Yrotation 
						JOINT LowerArm_L
						{
							OFFSET 24.3286 1.87007e-05 0.0
							CHANNELS 6 Xposition Yposition Zposition Zrotation Xrotation Yrotation 
							JOINT Hand_L
							{
								OFFSET 22.2916 0.0 0.0
								CHANNELS 6 Xposition Yposition Zposition Zrotation Xrotation Yrotation 
								End Site
								{
									OFFSET 0.0 0.0 0.0
								}
							}
						}
					}
				}
				JOINT Shoulder_R
				{
					OFFSET 12.9945 -0.242716 -4.98039
					CHANNELS 6 Xposition Yposition Zposition Zrotation Xrotation Yrotation 
					JOINT UpperArm_R
					{
						OFFSET -5.34813 0.0 0.0
						CHANNELS 6 Xposition Yposition Zposition Zrotation Xrotation Yrotation 
						JOINT LowerArm_R
						{
							OFFSET -24.3289 0.000322201 0.0
							CHANNELS 6 Xposition Yposition Zposition Zrotation Xrotation Yrotation 
							JOINT Hand_R
							{
								OFFSET -22.2915 -0.000108084 0.0
								CHANNELS 6 Xposition Yposition Zposition Zrotation Xrotation Yrotation 
								End Site
								{
									OFFSET 0.0 0.0 0.0
								}
							}
						}
					}
				}
			}
		}
		JOINT UpperLeg_L
		{
			OFFSET -2.19248 -6.46944 0.0
			CHANNELS 6 Xposition Yposition Zposition Zrotation Xrotation Yrotation 
			JOINT LowerLeg_L
			{
				OFFSET 39.0811 0.0 -1.23785e-05
				CHANNELS 6 Xposition Yposition Zposition Zrotation Xrotation Yrotation 
				JOINT Foot_L
				{
					OFFSET 40.9854 0.0 -1.26872e-05
					CHANNELS 6 Xposition Yposition Zposition Zrotation Xrotation Yrotation 
					JOINT Toes_L
					{
						OFFSET 11.7543 0.0 0.0
						CHANNELS 6 Xposition Yposition Zposition Zrotation Xrotation Yrotation 
						End Site
						{
							OFFSET 0.0 0.0 0.0
						}
					}
				}
			}
		}
		JOINT UpperLeg_R
		{
			OFFSET -2.19251 6.46944 0.0
			CHANNELS 6 Xposition Yposition Zposition Zrotation Xrotation Yrotation 
			JOINT LowerLeg_R
			{
				OFFSET -39.0811 -0.00228153 -0.0401928
				CHANNELS 6 Xposition Yposition Zposition Zrotation Xrotation Yrotation 
				JOINT Foot_R
				{
					OFFSET -40.9854 0.0 0.0
					CHANNELS 6 Xposition Yposition Zposition Zrotation Xrotation Yrotation 
					JOINT Toes_R
					{
						OFFSET -11.7543 0.0 0.0
						CHANNELS 6 Xposition Yposition Zposition Zrotation Xrotation Yrotation 
						End Site
						{
							OFFSET 0.0 0.0 0.0
						}
					}
				}
			}
		}
	}
}
MOTION
Frames:	6
Frame Time:	0.0333333
0.000000 0.000000 0.000000 0.000000 0.000000 -0.000000 0.484273 90.115400 432.498000 -82.871100 1.496570 153.766000 15.735700 0.000005 -0.000001 48.755800 84.621900 -44.000200 8.984550 -0.406207 -0.000000 0.655275 -7.383610 9.557460 16.377300 -0.000001 -0.000001 -11.396100 7.222510 -2.803840 6.456720 -0.000001 -0.000000 -4.425840 12.235200 -3.610650 12.994200 -0.242716 4.980390 -90.331300 1.328580 -75.999600 5.348090 -0.000007 -0.000001 -52.260500 -23.378900 -9.457880 24.328600 0.000019 0.000005 29.348000 4.646480 -81.800100 22.291600 -0.000001 0.000005 39.255800 4.755090 12.232700 12.994500 -0.242716 -4.980390 91.029300 -3.962020 -75.422400 -5.348130 -0.000001 -0.000004 -47.822300 -20.028300 23.665500 -24.328900 0.000322 -0.000009 0.179570 4.011600 -2.585920 -22.291500 -0.000108 -0.000004 39.970800 5.090360 5.208920 -2.192480 -6.469440 -0.000000 -174.941000 -9.364520 -7.185040 39.081100 -0.000007 -0.000012 0.024573 -0.070530 19.208600 40.985400 -0.000006 -0.000013 -0.976040 11.200800 -50.622300 11.754300 -0.000000 0.000003 -0.150680 -0.556092 -40.099800 -2.192510 6.469440 -0.000001 -173.353000 -8.648810 117.395000 -39.081100 -0.002282 -0.040193 -0.046442 0.022631 65.475300 -40.985400 0.000008 0.000006 -1.877920 -11.147700 -66.899100 -11.754300 -0.000006 -0.000006 0.001358 0.140361 -10.881200
0.000000 0.000000 0.000000 0.000000 0.000000 -0.000000 0.687943 91.675100 424.915000 -83.065300 1.443310 153.232000 15.735700 0.000005 -0.000001 44.545400 84.946700 -39.798700 8.984550 -0.406207 -0.000000 -0.342552 -7.536690 9.476890 16.377300 -0.000001 -0.000001 -11.627000 6.946010 -2.401150 6.456720 -0.000001 -0.000000 -4.012450 12.269200 -3.328210 12.994200 -0.242716 4.980390 -90.378800 1.552370 -76.284500 5.348090 -0.000007 -0.000001 -54.720500 -20.566500 -9.037210 24.328600 0.000019 0.000005 32.899500 3.748510 -84.227800 22.291600 -0.000001 0.000005 50.797200 4.877010 9.869390 12.994500 -0.242716 -4.980390 91.158900 -4.516370 -75.591900 -5.348130 -0.000001 -0.000004 -47.777300 -19.734300 25.368700 -24.328900 0.000322 -0.000009 0.207386 5.538330 -2.158310 -22.291500 -0.000108 -0.000004 49.568400 4.845190 10.377600 -2.192480 -6.469440 -0.000000 -175.014000 -7.927850 -2.087980 39.081100 -0.000007 -0.000012 0.003929 -0.019308 11.504900 40.985400 -0.000006 -0.000013 -0.577826 12.017300 -34.724200 11.754300 -0.000000 0.000003 -0.071306 -0.366899 -31.774500 -2.192510 6.469440 -0.000001 -174.081000 -9.123160 119.794000 -39.081100 -0.002282 -0.040193 -0.007830 0.009228 50.202600 -40.985400 0.000008 0.000006 -2.879010 -7.977220 -69.697500 -11.754300 -0.000006 -0.000006 0.000786 0.153182 -10.360900
0.000000 0.000000 0.000000 0.000000 0.000000 -0.000000 0.619391 91.853100 416.725000 -84.962200 2.120480 155.186000 15.735700 0.000005 -0.000001 47.221700 84.702700 -43.303600 8.984550 -0.406207 -0.000000 0.284475 -7.449110 7.858360 16.377300 -0.000001 -0.000001 -11.586100 6.761650 -2.154020 6.456720 -0.000001 -0.000000 -4.345870 11.951700 -2.872080 12.994200 -0.242716 4.980390 -90.612000 2.497010 -76.225100 5.348090 -0.000007 -0.000001 -56.958800 -15.077100 -7.876610 24.328600 0.000019 0.000005 36.688100 4.254230 -84.315200 22.291600 -0.000001 0.000005 54.410200 4.878550 9.803360 12.994500 -0.242716 -4.980390 90.997100 -3.844900 -75.450000 -5.348130 -0.000001 -0.000004 -48.400400 -19.835200 25.216800 -24.328900 0.000322 -0.000009 0.039748 2.204720 -1.028910 -22.291500 -0.000108 -0.000004 53.326100 4.776440 11.763500 -2.192480 -6.469440 -0.000000 -176.769000 -5.323160 2.062220 39.081100 -0.000007 -0.000012 0.007454 -0.033865 12.414700 40.985400 -0.000006 -0.000013 -3.883510 11.813000 -27.932000 11.754300 -0.000000 0.000003 0.001225 0.024095 -15.599400 -2.192510 6.469440 -0.000001 -176.090000 -8.583400 125.383000 -39.081100 -0.002282 -0.040193 0.005684 -0.003132 37.444600 -40.985400 0.000008 0.000006 -4.756770 -4.539390 -73.228700 -11.754300 -0.000006 -0.000006 0.000522 0.158368 -10.150400
0.000000 0.000000 0.000000 0.000000 0.000000 -0.000000 0.701889 90.914800 408.414000 -86.392400 1.059490 156.446000 15.735700 0.000005 -0.000001 45.444700 84.469900 -41.828500 8.984550 -0.406207 -0.000000 0.386772 -7.990310 7.263660 16.377300 -0.000001 -0.000001 -10.866600 6.566070 -2.299720 6.456720 -0.000001 -0.000000 -4.202870 11.676200 -3.414650 12.994200 -0.242716 4.980390 -90.873900 3.511600 -76.016300 5.348090 -0.000007 -0.000001 -60.612800 -8.541470 -5.514250 24.328600 0.000019 0.000005 35.686200 7.256930 -80.022000 22.291600 -0.000001 0.000005 49.143400 4.947250 8.378250 12.994500 -0.242716 -4.980390 90.788100 -3.042730 -75.470600 -5.348130 -0.000001 -0.000004 -49.699000 -21.017400 23.772500 -24.328900 0.000322 -0.000009 -0.013106 -5.873220 -0.122748 -22.291500 -0.000108 -0.000004 52.587000 4.869520 9.966300 -2.192480 -6.469440 -0.000000 -177.537000 -2.458320 1.601420 39.081100 -0.000007 -0.000012 0.012958 -0.030391 23.091900 40.985400 -0.000006 -0.000013 -6.181480 13.681900 -31.124300 11.754300 -0.000000 0.000003 0.001020 0.019422 -15.789000 -2.192510 6.469440 -0.000001 -175.658000 -5.744400 129.742000 -39.081100 -0.002282 -0.040193 0.007012 -0.006318 30.430200 -40.985400 0.000008 0.000006 -6.433970 -4.052870 -76.154200 -11.754300 -0.000006 -0.000006 0.000094 0.166064 -9.837920
0.000000 0.000000 0.000000 0.000000 0.000000 -0.000000 0.823472 89.113400 400.064000 -86.964900 -0.012205 157.789000 15.735700 0.000005 -0.000001 49.628100 84.327400 -45.851000 8.984550 -0.406207 -0.000000 1.150490 -7.563600 7.633060 16.377300 -0.000001 -0.000001 -10.453900 6.129420 -2.574590 6.456720 -0.000001 -0.000000 -4.501700 11.041900 -5.246630 12.994200 -0.242716 4.980390 -91.361500 5.279560 -75.519600 5.348090 -0.000007 -0.000001 -65.477100 -2.714320 -3.755120 24.328600 0.000019 0.000005 34.159700 13.451400 -71.083800 22.291600 -0.000001 0.000005 35.991100 5.034720 6.510110 12.994500 -0.242716 -4.980390 90.426500 -1.644410 -75.455600 -5.348130 -0.000001 -0.000004 -52.323900 -21.859500 19.611000 -24.328900 0.000322 -0.000009 0.000114 -12.158700 -0.000069 -22.291500 -0.000108 -0.000004 48.608600 4.893080 9.523550 -2.192480 -6.469440 -0.000000 -177.279000 -0.781196 -1.696330 39.081100 -0.000007 -0.000012 0.054826 -0.070311 37.944900 40.985400 -0.000006 -0.000013 -9.661920 12.380200 -30.517200 11.754300 -0.000000 0.000003 0.001161 0.022599 -15.660100 -2.192510 6.469440 -0.000001 -172.552000 -2.692960 130.635000 -39.081100 -0.002282 -0.040193 0.375941 -0.538291 34.694900 -40.985400 0.000008 0.000006 2.005980 -6.806840 -73.542900 -11.754300 -0.000006 -0.000006 0.002037 0.119550 -11.725300
0.000000 0.000000 0.000000 0.000000 0.000000 -0.000000 0.949644 86.234800 391.734000 -86.528600 -0.602003 160.153000 15.735700 0.000005 -0.000001 60.902400 84.110200 -56.841900 8.984550 -0.406207 -0.000000 2.762260 -5.900340 8.261180 16.377300 -0.000001 -0.000001 -9.723270 5.239700 -2.561190 6.456720 -0.000001 -0.000000 -5.076370 9.896780 -6.939250 12.994200 -0.242716 4.980390 -91.908100 7.021480 -74.755800 5.348090 -0.000007 -0.000001 -69.255700 2.004110 -2.355480 24.328600 0.000019 0.000005 34.279600 23.911300 -59.285600 22.291600 -0.000001 0.000005 14.831300 5.111630 4.694570 12.994500 -0.242716 -4.980390 90.048000 -0.180036 -75.061500 -5.348130 -0.000001 -0.000004 -57.485600 -18.482200 12.110600 -24.328900 0.000322 -0.000009 -0.000964 -15.320600 -0.000086 -22.291500 -0.000108 -0.000004 42.336900 4.855420 10.278400 -2.192480 -6.469440 -0.000000 -175.822000 -1.210180 -7.018910 39.081100 -0.000007 -0.000012 0.182579 -0.117351 57.268600 40.985400 -0.000006 -0.000013 -10.725300 8.930330 -32.911900 11.754300 -0.000000 0.000003 0.001644 0.034986 -15.157500 -2.192510 6.469440 -0.000001 -170.712000 -0.277231 130.727000 -39.081100 -0.002282 -0.040193 0.593037 -0.526816 48.229000 -40.985400 0.000008 0.000006 3.987660 -6.064860 -75.653000 -11.754300 -0.000006 -0.000006 -0.003074 0.209103 -8.088410
